<?xml version="1.0" standalone="no"?>
<!DOCTYPE svg PUBLIC "-//W3C//DTD SVG 20010904//EN"
 "http://www.w3.org/TR/2001/REC-SVG-20010904/DTD/svg10.dtd">
<svg version="1.0" xmlns="http://www.w3.org/2000/svg"
 width="594.000000pt" height="594.000000pt" viewBox="0 0 594.000000 594.000000"
 preserveAspectRatio="xMidYMid meet">

<g transform="translate(0.000000,594.000000) scale(0.100000,-0.100000)"
fill="#000000" stroke="none">
<path d="M750 5916 c-214 -50 -372 -144 -514 -304 -77 -88 -136 -192 -175
-312 -51 -154 -51 -142 -51 -1800 1 -1004 4 -1539 10 -1528 6 9 39 88 74 175
35 87 103 248 151 358 107 243 385 895 502 1175 47 113 145 347 218 520 73
173 136 322 139 330 3 8 3 1 0 -16 -3 -22 -1 -33 10 -37 8 -3 17 -21 20 -39 3
-18 10 -66 16 -107 14 -96 24 -109 31 -41 8 77 -4 150 -29 171 -12 9 -19 19
-16 22 3 3 1 23 -5 45 -10 34 -8 47 12 93 13 30 28 65 33 77 8 20 10 17 10
-20 0 -23 7 -69 16 -100 9 -32 24 -121 33 -199 9 -78 20 -151 25 -164 7 -18 4
-25 -15 -35 -22 -12 -27 -10 -45 11 l-21 24 5 -42 c4 -29 0 -53 -14 -85 -21
-45 -27 -127 -10 -144 9 -9 -312 -520 -500 -795 -142 -208 -148 -247 -60 -426
64 -134 73 -165 14 -53 -20 39 -38 69 -40 67 -3 -2 -5 -43 -6 -90 l-2 -86 88
-173 c49 -95 92 -175 96 -178 5 -3 26 -43 49 -88 22 -46 44 -89 49 -95 14 -17
146 -278 191 -377 99 -217 232 -486 356 -720 42 -80 101 -191 131 -247 30 -56
65 -121 79 -145 14 -24 51 -95 84 -158 96 -187 164 -302 191 -322 49 -36 207
-15 224 29 5 12 3 13 -6 7 -7 -6 -31 -7 -53 -3 l-40 6 45 2 c37 1 93 27 325
149 526 278 595 313 595 303 0 -5 -71 -47 -158 -92 -86 -45 -209 -110 -273
-145 -64 -35 -123 -65 -130 -66 -8 -2 -16 -6 -19 -9 -3 -4 -24 -16 -47 -28
-24 -12 -43 -24 -43 -27 0 -3 3 -4 8 -2 115 55 348 174 350 180 2 4 10 8 17 8
26 0 566 271 602 301 10 9 50 32 88 51 240 122 465 247 465 260 0 9 -71 -18
-80 -30 -3 -4 -9 -8 -15 -9 -5 -1 -143 -72 -305 -158 -379 -201 -450 -237
-450 -227 0 5 96 57 213 117 332 169 890 465 911 484 10 9 25 30 32 48 26 61
18 96 -52 231 -37 70 -160 309 -274 532 -114 223 -320 622 -458 886 -139 265
-252 486 -252 492 0 26 -240 -236 -303 -331 -120 -180 -174 -220 -222 -167
-16 18 -17 26 -6 76 7 30 41 111 76 180 34 68 60 124 57 124 -11 0 -282 -146
-367 -199 -341 -209 -608 -458 -717 -668 -39 -75 -48 -129 -26 -151 17 -17
157 -15 308 3 69 9 278 41 465 72 311 52 354 57 500 57 140 1 169 -2 235 -22
165 -52 265 -143 306 -280 82 -268 -25 -545 -317 -827 -202 -195 -395 -328
-744 -517 -206 -112 -566 -271 -580 -256 -2 2 -77 148 -165 323 -89 176 -155
311 -146 301 8 -10 17 -23 19 -29 2 -6 27 8 56 31 115 91 162 52 87 -72 -20
-33 -34 -61 -32 -63 9 -9 318 123 501 215 492 245 864 547 940 763 22 61 19
86 -12 106 -23 15 -51 18 -193 18 -223 -1 -424 -34 -940 -157 -371 -89 -471
-85 -573 17 -20 21 -48 61 -62 89 -50 105 -95 332 -95 482 0 89 2 95 44 180
101 201 337 464 587 655 140 106 346 235 506 317 186 94 297 139 450 183 l112
32 -31 61 c-80 159 -109 178 -272 178 -55 0 -310 11 -566 23 -256 13 -487 21
-515 19 -27 -3 -76 -14 -109 -25 -32 -11 -60 -18 -62 -17 -1 2 -14 20 -28 40
-20 30 -22 37 -9 42 21 8 19 9 43 -29 22 -36 35 -41 58 -26 12 7 11 14 -2 39
-9 17 -16 34 -16 38 0 15 74 -7 105 -31 35 -26 55 -32 55 -15 0 18 -91 69
-135 76 -42 6 -44 8 -64 63 -39 109 -66 238 -86 414 -4 31 -10 55 -15 52 -6
-4 192 471 205 492 1 2 82 -27 181 -63 98 -36 272 -99 386 -138 l206 -72 48
70 c140 208 311 393 479 518 268 199 575 286 825 233 385 -81 657 -418 746
-925 20 -113 26 -415 11 -580 l-7 -85 342 -124 c189 -68 347 -127 352 -132 9
-8 -30 -185 -45 -205 -4 -5 -5 -21 -2 -34 4 -16 3 -21 -6 -16 -9 6 -10 0 -5
-20 5 -20 4 -25 -6 -19 -9 6 -11 -1 -5 -26 4 -22 3 -29 -3 -20 -13 18 -14 17
-66 -169 -40 -140 -313 -1078 -461 -1585 -24 -82 -132 -456 -239 -830 -173
-603 -265 -923 -282 -977 -5 -17 11 -18 235 -18 l241 0 1 33 c0 26 2 28 8 12
5 -11 6 -26 3 -33 -4 -11 71 -13 409 -10 394 4 418 5 488 26 179 55 307 130
423 249 124 128 192 248 240 424 l23 84 0 2180 0 2180 -23 80 c-31 110 -97
255 -114 255 -5 0 -7 4 -3 9 9 16 -110 157 -187 221 -104 86 -264 164 -403
195 l-110 25 -2120 -1 -2120 0 -95 -23z m484 -1836 c14 -24 22 -29 39 -24 14
4 9 -2 -13 -18 -19 -13 -45 -39 -57 -57 l-23 -34 0 44 c0 49 17 119 28 119 4
0 16 -14 26 -30z m323 -221 c32 -12 80 -54 95 -84 5 -11 -5 -3 -23 19 -56 66
-139 84 -212 47 -20 -10 -34 -14 -31 -9 20 32 118 47 171 27z m0 -56 c46 -22
73 -67 73 -123 0 -87 -69 -148 -153 -137 -139 19 -170 196 -46 259 43 22 81
23 126 1z m-215 -32 c-9 -16 -18 -28 -21 -26 -4 5 27 55 34 55 2 0 -4 -13 -13
-29z m-25 -73 c-3 -7 -5 -2 -5 12 0 14 2 19 5 13 2 -7 2 -19 0 -25z m360 -40
c-2 -13 -4 -3 -4 22 0 25 2 35 4 23 2 -13 2 -33 0 -45z m-360 -20 c-3 -7 -5
-2 -5 12 0 14 2 19 5 13 2 -7 2 -19 0 -25z m22 -48 c11 -24 11 -24 -3 -6 -9
11 -16 24 -16 30 0 12 5 7 19 -24z m311 -10 c-6 -11 -13 -20 -16 -20 -2 0 0 9
6 20 6 11 13 20 16 20 2 0 0 -9 -6 -20z m3250 -26 c0 -8 -5 -12 -10 -9 -6 4
-8 11 -5 16 9 14 15 11 15 -7z m-10 -46 c0 -16 -3 -19 -11 -11 -6 6 -8 16 -5
22 11 17 16 13 16 -11z m-10 -44 c0 -8 -5 -12 -10 -9 -6 4 -8 11 -5 16 9 14
15 11 15 -7z m-10 -46 c0 -16 -3 -19 -11 -11 -6 6 -8 16 -5 22 11 17 16 13 16
-11z m-10 -44 c0 -8 -5 -12 -10 -9 -6 4 -8 11 -5 16 9 14 15 11 15 -7z m-10
-46 c0 -16 -3 -19 -11 -11 -6 6 -8 16 -5 22 11 17 16 13 16 -11z m-13 -60 c-3
-7 -5 -2 -5 12 0 14 2 19 5 13 2 -7 2 -19 0 -25z m-7 -39 c0 -11 -4 -18 -10
-14 -5 3 -7 12 -3 20 7 21 13 19 13 -6z m-13 -61 c-3 -7 -5 -2 -5 12 0 14 2
19 5 13 2 -7 2 -19 0 -25z m-10 -50 c-3 -7 -5 -2 -5 12 0 14 2 19 5 13 2 -7 2
-19 0 -25z m-10 -50 c-3 -7 -5 -2 -5 12 0 14 2 19 5 13 2 -7 2 -19 0 -25z
m-10 -50 c-3 -7 -5 -2 -5 12 0 14 2 19 5 13 2 -7 2 -19 0 -25z m-18 -87 c-6
-34 -14 -60 -16 -57 -2 2 1 32 8 65 6 34 14 60 16 57 2 -2 -1 -32 -8 -65z
m-22 -108 c-3 -10 -5 -4 -5 12 0 17 2 24 5 18 2 -7 2 -21 0 -30z m-10 -55 c-3
-7 -5 -2 -5 12 0 14 2 19 5 13 2 -7 2 -19 0 -25z m-10 -50 c-3 -7 -5 -2 -5 12
0 14 2 19 5 13 2 -7 2 -19 0 -25z m-12 -73 c-4 -25 -9 -44 -12 -41 -2 2 -1 25
2 51 4 25 9 44 12 41 2 -2 1 -25 -2 -51z m-18 -87 c-3 -7 -5 -2 -5 12 0 14 2
19 5 13 2 -7 2 -19 0 -25z m-10 -55 c-3 -10 -5 -4 -5 12 0 17 2 24 5 18 2 -7
2 -21 0 -30z m-3952 -43 c19 -38 33 -70 30 -70 -2 0 -21 32 -40 70 -19 39 -33
70 -30 70 2 0 21 -31 40 -70z m3942 -12 c-3 -7 -5 -2 -5 12 0 14 2 19 5 13 2
-7 2 -19 0 -25z m-10 -50 c-3 -7 -5 -2 -5 12 0 14 2 19 5 13 2 -7 2 -19 0 -25z
m-10 -55 c-3 -10 -5 -4 -5 12 0 17 2 24 5 18 2 -7 2 -21 0 -30z m-3752 -208
c54 -104 93 -185 88 -180 -6 6 -54 96 -108 200 -54 105 -93 186 -87 180 5 -5
54 -95 107 -200z m3724 41 c-12 -75 -24 -134 -26 -132 -3 3 5 66 18 140 12 75
24 134 26 132 3 -3 -5 -66 -18 -140z m-32 -183 c-3 -10 -5 -4 -5 12 0 17 2 24
5 18 2 -7 2 -21 0 -30z m-12 -83 c-4 -28 -9 -49 -12 -47 -2 3 -1 28 3 56 4 28
9 50 11 47 3 -3 2 -28 -2 -56z m-3530 -60 c25 -49 43 -90 40 -90 -3 0 -25 41
-50 90 -25 50 -43 90 -40 90 3 0 25 -40 50 -90z m3510 -65 c-4 -31 -9 -54 -12
-51 -3 2 -1 30 2 61 4 31 9 54 12 51 3 -2 1 -30 -2 -61z m-18 -102 c-3 -10 -5
-4 -5 12 0 17 2 24 5 18 2 -7 2 -21 0 -30z m-3362 -83 c19 -38 32 -70 27 -70
-4 0 -22 32 -39 70 -17 39 -30 70 -27 70 2 0 20 -31 39 -70z m3352 23 c-3 -10
-5 -4 -5 12 0 17 2 24 5 18 2 -7 2 -21 0 -30z m-10 -70 c-3 -10 -5 -4 -5 12 0
17 2 24 5 18 2 -7 2 -21 0 -30z m-10 -70 c-3 -10 -5 -2 -5 17 0 19 2 27 5 18
2 -10 2 -26 0 -35z m-3283 22 c3 -8 1 -15 -3 -15 -5 0 -11 7 -15 15 -3 8 -1
15 3 15 5 0 11 -7 15 -15z m20 -40 c3 -8 1 -15 -3 -15 -5 0 -11 7 -15 15 -3 8
-1 15 3 15 5 0 11 -7 15 -15z m3253 -42 c-3 -10 -5 -4 -5 12 0 17 2 24 5 18 2
-7 2 -21 0 -30z m-3226 -16 c10 -36 3 -34 -17 4 -11 23 -12 30 -3 27 7 -2 16
-16 20 -31z m3216 -54 c-3 -10 -5 -4 -5 12 0 17 2 24 5 18 2 -7 2 -21 0 -30z
m-3137 -103 c28 -55 48 -100 45 -100 -3 0 -27 45 -55 100 -28 55 -48 100 -45
100 3 0 27 -45 55 -100z m3127 33 c-3 -10 -5 -4 -5 12 0 17 2 24 5 18 2 -7 2
-21 0 -30z m-10 -80 c-3 -10 -5 -2 -5 17 0 19 2 27 5 18 2 -10 2 -26 0 -35z
m-10 -70 c-3 -10 -5 -2 -5 17 0 19 2 27 5 18 2 -10 2 -26 0 -35z m-10 -70 c-3
-10 -5 -2 -5 17 0 19 2 27 5 18 2 -10 2 -26 0 -35z m-10 -80 c-3 -10 -5 -2 -5
17 0 19 2 27 5 18 2 -10 2 -26 0 -35z m-10 -75 c-2 -13 -4 -5 -4 17 -1 22 1
32 4 23 2 -10 2 -28 0 -40z m-10 -80 c-2 -13 -4 -5 -4 17 -1 22 1 32 4 23 2
-10 2 -28 0 -40z m-10 -80 c-2 -13 -4 -5 -4 17 -1 22 1 32 4 23 2 -10 2 -28 0
-40z m-10 -80 c-2 -13 -4 -5 -4 17 -1 22 1 32 4 23 2 -10 2 -28 0 -40z m-10
-85 c-3 -10 -5 -2 -5 17 0 19 2 27 5 18 2 -10 2 -26 0 -35z m-10 -90 c-3 -10
-5 -2 -5 17 0 19 2 27 5 18 2 -10 2 -26 0 -35z m-10 -85 c-2 -13 -4 -5 -4 17
-1 22 1 32 4 23 2 -10 2 -28 0 -40z m-2547 -59 c23 -44 37 -78 31 -75 -8 5
-41 67 -79 149 -2 4 -1 7 2 7 3 0 24 -36 46 -81z m2537 -36 c-3 -10 -5 -2 -5
17 0 19 2 27 5 18 2 -10 2 -26 0 -35z m-10 -95 c-2 -13 -4 -5 -4 17 -1 22 1
32 4 23 2 -10 2 -28 0 -40z m-2438 -37 c11 -21 35 -48 53 -60 18 -11 28 -21
21 -21 -7 0 -27 13 -45 29 -37 33 -75 91 -59 91 6 0 19 -17 30 -39z m2428 -63
c-2 -13 -4 -3 -4 22 0 25 2 35 4 23 2 -13 2 -33 0 -45z"/>
<path d="M3210 5725 c-183 -37 -367 -130 -545 -276 -78 -64 -244 -229 -231
-229 5 0 -18 -28 -51 -62 -55 -58 -179 -229 -155 -214 6 3 12 1 14 -4 3 -11
1944 -730 1970 -730 4 0 9 66 10 148 l2 147 6 -130 5 -130 8 85 c12 120 2 418
-17 525 -73 403 -279 710 -557 827 -134 56 -311 73 -459 43z m105 -155 c-11
-5 -38 -9 -60 -9 -22 0 -49 4 -60 9 -13 6 7 9 60 9 53 0 73 -3 60 -9z m-160
-10 c-3 -5 -15 -10 -25 -10 -10 0 -22 5 -25 10 -4 6 7 10 25 10 18 0 29 -4 25
-10z m260 0 c-8 -13 -35 -13 -55 0 -11 7 -5 10 23 10 23 0 36 -4 32 -10z
m-333 -12 c-9 -9 -15 -9 -24 0 -9 9 -7 12 12 12 19 0 21 -3 12 -12z m413 1
c25 -6 42 -16 39 -21 -3 -5 -11 -4 -19 2 -8 7 -19 9 -24 6 -5 -4 -12 -2 -16 3
-3 6 -12 8 -19 5 -8 -3 -17 -1 -21 5 -8 14 5 14 60 0z m-455 -3 c0 -11 -19
-15 -25 -6 -3 5 1 10 9 10 9 0 16 -2 16 -4z m-40 -10 c0 -11 -19 -15 -25 -6
-3 5 1 10 9 10 9 0 16 -2 16 -4z m-40 -16 c0 -5 -2 -10 -4 -10 -3 0 -8 5 -11
10 -3 6 -1 10 4 10 6 0 11 -4 11 -10z m160 -6 c0 -2 -12 -4 -27 -4 -21 0 -24
3 -14 9 13 8 41 5 41 -5z m83 9 c-13 -2 -35 -2 -50 0 -16 2 -5 4 22 4 28 0 40
-2 28 -4z m170 0 c-13 -2 -35 -2 -50 0 -16 2 -5 4 22 4 28 0 40 -2 28 -4z m62
-3 c3 -6 -4 -10 -17 -10 -18 0 -20 2 -8 10 19 12 18 12 25 0z m185 -17 c16 -9
18 -12 5 -8 -11 4 -27 8 -35 10 -8 2 -17 4 -20 5 -3 1 -8 2 -12 1 -5 0 -8 4
-8 10 0 12 32 4 70 -18z m-565 7 c3 -5 -1 -10 -10 -10 -9 0 -13 5 -10 10 3 6
8 10 10 10 2 0 7 -4 10 -10z m425 0 c0 -5 -8 -10 -17 -10 -15 0 -16 2 -3 10
19 12 20 12 20 0z m-590 -10 c-8 -5 -19 -10 -25 -10 -5 0 -3 5 5 10 8 5 20 10
25 10 6 0 3 -5 -5 -10z m125 0 c3 -5 -1 -10 -10 -10 -9 0 -13 5 -10 10 3 6 8
10 10 10 2 0 7 -4 10 -10z m500 0 c3 -5 -1 -10 -10 -10 -9 0 -13 5 -10 10 3 6
8 10 10 10 2 0 7 -4 10 -10z m-540 -10 c3 -5 1 -10 -4 -10 -6 0 -11 5 -11 10
0 6 2 10 4 10 3 0 8 -4 11 -10z m575 0 c0 -5 -5 -10 -11 -10 -5 0 -7 5 -4 10
3 6 8 10 11 10 2 0 4 -4 4 -10z m-780 -46 c-94 -50 -182 -108 -250 -163 -73
-59 -88 -66 -39 -20 74 71 325 228 364 229 6 0 -28 -21 -75 -46z m175 36 c3
-5 1 -10 -4 -10 -6 0 -11 5 -11 10 0 6 2 10 4 10 3 0 8 -4 11 -10z m648 -3 c4
3 7 1 7 -5 0 -14 -2 -14 -24 -6 -9 3 -16 11 -16 16 0 7 5 6 13 -1 8 -6 17 -8
20 -4z m164 -46 c107 -71 210 -172 281 -274 57 -83 149 -264 138 -274 -9 -9
-17 2 -19 26 -1 11 -5 21 -9 21 -4 0 -7 3 -6 8 3 14 -62 143 -103 204 -67 98
-212 237 -309 296 -46 29 -80 52 -74 52 6 0 51 -27 101 -59z m-837 40 c0 -5
-12 -14 -27 -19 -16 -5 -36 -13 -45 -17 -11 -4 -18 -3 -18 5 0 6 5 8 10 5 6
-3 10 -1 10 5 0 6 4 9 9 5 5 -3 12 -1 16 5 4 6 10 8 15 5 5 -3 11 -1 15 5 8
12 15 13 15 1z m780 -53 c0 -4 -20 2 -45 14 -25 12 -45 26 -45 30 0 4 20 -2
45 -14 25 -12 45 -26 45 -30z m-881 9 c-2 -2 -46 -28 -98 -57 -163 -93 -300
-209 -445 -380 -30 -36 -34 -38 -15 -10 38 60 270 282 354 340 87 60 197 121
204 114 2 -2 2 -6 0 -7z m1084 -166 c72 -75 150 -177 130 -170 -6 2 -39 41
-73 87 -61 82 -140 155 -213 201 -20 12 -37 27 -37 32 0 20 121 -75 193 -150z
m147 -195 c-1 -5 4 -13 12 -17 9 -6 9 -9 1 -9 -7 0 -17 10 -24 21 -8 16 -8 20
1 17 6 -2 11 -7 10 -12z m39 -67 c19 -42 8 -46 -12 -4 -9 19 -13 35 -9 35 4 0
13 -14 21 -31z m41 -104 c0 -5 -5 -3 -10 5 -5 8 -10 20 -10 25 0 6 5 3 10 -5
5 -8 10 -19 10 -25z m35 -101 c4 -25 3 -24 -8 6 -8 19 -17 46 -20 60 -5 19 -3
17 8 -6 7 -17 16 -44 20 -60z m34 45 c14 -40 14 -49 0 -49 -6 0 -9 6 -6 14 3
7 0 19 -6 25 -6 6 -7 11 -3 11 5 0 3 7 -4 15 -7 9 -8 15 -2 15 5 0 15 -14 21
-31z m21 -69 c0 -5 -4 -10 -10 -10 -5 0 -10 5 -10 10 0 6 5 10 10 10 6 0 10
-4 10 -10z m-16 -138 c4 -32 0 -22 -14 33 -10 44 -19 85 -18 90 0 22 27 -78
32 -123z m26 98 c0 -5 -4 -10 -10 -10 -5 0 -10 5 -10 10 0 6 5 10 10 10 6 0
10 -4 10 -10z m10 -40 c0 -5 -4 -10 -10 -10 -5 0 -10 5 -10 10 0 6 5 10 10 10
6 0 10 -4 10 -10z m-3 -62 c-3 -7 -5 -2 -5 12 0 14 2 19 5 13 2 -7 2 -19 0
-25z m-20 -95 c-3 -10 -5 -2 -5 17 0 19 2 27 5 18 2 -10 2 -26 0 -35z"/>
<path d="M2005 4677 c-21 -17 -27 -32 -27 -62 0 -30 6 -45 27 -62 33 -29 57
-29 91 1 21 18 28 32 28 61 0 29 -7 43 -28 61 -34 30 -58 30 -91 1z"/>
<path d="M4094 3919 c-28 -31 -25 -96 5 -120 53 -43 121 -7 121 64 0 24 -7 44
-20 57 -27 27 -81 26 -106 -1z"/>
<path d="M2243 164 c-17 -7 -35 -18 -38 -24 -6 -9 70 24 84 36 9 8 -15 2 -46
-12z"/>
<path d="M2130 100 c-9 -6 -10 -10 -3 -10 6 0 15 5 18 10 8 12 4 12 -15 0z"/>
</g>
</svg>
